<svg width="40" height="40" viewBox="0 0 40 40" fill="none" xmlns="http://www.w3.org/2000/svg">
  <path
    d="M37.1903 2.81129C39.3805 5.00277 40 7.88047 40 12.352V27.648C40 32.1195 39.3805 34.9751 37.1903 37.1887C35 39.3802 32.0575 40 27.6549 40H12.3451C7.92035 40 5.02212 39.3802 2.80973 37.1887C0.597345 34.9972 0 32.1195 0 27.648L0 12.3298C0 7.88047 0.619469 5.0249 2.80973 2.81129C5 0.619812 7.92035 0 12.323 0L27.6549 0C32.0575 0 34.9779 0.619812 37.1903 2.81129ZM9.73451 19.9889C9.73451 21.5163 10.8628 22.6674 12.3673 22.6674H17.3451V27.648C17.3451 29.1533 18.4735 30.2601 20 30.2601C21.5487 30.2601 22.677 29.1533 22.677 27.648V22.6674H27.677C29.1593 22.6674 30.2876 21.5163 30.2876 19.9889C30.2876 18.4615 29.1814 17.3105 27.677 17.3105H22.677V12.3298C22.677 10.8246 21.5487 9.69563 20 9.69563C18.4735 9.69563 17.3451 10.8246 17.3451 12.3298V17.3105H12.3673C10.8407 17.3105 9.73451 18.4615 9.73451 19.9889Z"
    fill="black"
  />
</svg>
