<svg width="40" height="40" viewBox="0 0 40 40" fill="none" xmlns="http://www.w3.org/2000/svg">
  <path
    d="M37.6903 2.81129C39.8805 5.00277 40.5 7.88047 40.5 12.352V27.648C40.5 32.1195 39.8805 34.9751 37.6903 37.1887C35.5 39.3802 32.5575 40 28.1549 40H12.8451C8.42035 40 5.52212 39.3802 3.30973 37.1887C1.09735 34.9972 0.5 32.1195 0.5 27.648L0.5 12.3298C0.5 7.88047 1.11947 5.0249 3.30973 2.81129C5.5 0.619812 8.42035 0 12.823 0L28.1549 0C32.5575 0 35.4779 0.619812 37.6903 2.81129ZM10.2345 19.9889C10.2345 21.5163 11.3628 22.6674 12.8673 22.6674H17.8451V27.648C17.8451 29.1533 18.9735 30.2601 20.5 30.2601C22.0487 30.2601 23.177 29.1533 23.177 27.648V22.6674H28.177C29.6593 22.6674 30.7876 21.5163 30.7876 19.9889C30.7876 18.4615 29.6814 17.3105 28.177 17.3105H23.177V12.3298C23.177 10.8246 22.0487 9.69563 20.5 9.69563C18.9735 9.69563 17.8451 10.8246 17.8451 12.3298V17.3105H12.8673C11.3407 17.3105 10.2345 18.4615 10.2345 19.9889Z"
    fill="#009CCD"
  />
</svg>
