<svg width="68" height="68" viewBox="0 0 68 68" fill="none" xmlns="http://www.w3.org/2000/svg">
  <path
    d="M33.6725 67.8576C15.1693 67.8576 0 52.655 0 34.1851C0 15.682 15.1693 0.512695 33.6725 0.512695C52.1756 0.512695 67.3449 15.682 67.3449 34.1851C67.3449 52.655 52.1756 67.8576 33.6725 67.8576ZM14.3358 20.0827C13.2023 21.583 13.7024 23.1833 15.4026 23.1833H51.8422C53.5759 23.1833 54.076 21.583 52.9424 20.0494C48.5417 13.9483 41.4738 10.2144 33.6058 10.2144C25.7378 10.2144 18.6699 13.9483 14.3358 20.0827ZM33.6391 41.3864C36.973 41.3864 39.6735 38.7193 39.6735 35.3187C39.6735 32.0181 36.973 29.3176 33.6391 29.3176C30.3052 29.3176 27.6047 32.0181 27.6047 35.3187C27.6047 38.7193 30.3052 41.3864 33.6391 41.3864ZM56.4097 40.8863C56.8431 39.3527 56.1096 38.6859 54.7427 38.886C46.9414 39.9861 41.0737 46.7873 41.1737 54.7553C41.1737 56.0556 42.1072 56.789 43.3741 56.1556C49.8419 53.1217 54.5427 47.6208 56.4097 40.8863ZM10.8685 40.8863C12.7355 47.6208 17.4363 53.1217 23.9041 56.1556C25.171 56.789 26.1045 56.0556 26.1045 54.7553C26.2045 46.7873 20.3368 39.9861 12.5355 38.886C11.1686 38.6859 10.4685 39.3527 10.8685 40.8863Z"
    fill="#FBD300"
  />
</svg>
