<svg width="141" height="39" viewBox="0 0 141 39" fill="none" xmlns="http://www.w3.org/2000/svg">
  <path d="M118.083 29.5742V0.0438232H129.734C131.973 0.0438232 133.882 0.47159 135.458 1.32712C137.035 2.17305 138.236 3.35061 139.063 4.85981C139.899 6.3594 140.317 8.08969 140.317 10.0507C140.317 12.0117 139.894 13.742 139.048 15.2416C138.203 16.7412 136.977 17.9091 135.372 18.7454C133.776 19.5817 131.844 19.9999 129.575 19.9999H122.149V14.9964H128.566C129.767 14.9964 130.757 14.7898 131.536 14.3764C132.324 13.9535 132.911 13.3719 133.295 12.6317C133.689 11.8819 133.886 11.0216 133.886 10.0507C133.886 9.07019 133.689 8.21465 133.295 7.48409C132.911 6.74391 132.324 6.17195 131.536 5.76821C130.748 5.35487 129.748 5.14819 128.537 5.14819H124.327V29.5742H118.083Z" fill="black"/>
  <path d="M59.7145 29.5742V0.0438232H65.958V12.228H78.6324V0.0438232H84.8614V29.5742H78.6324V17.3756H65.958V29.5742H59.7145Z" fill="black"/>
  <path d="M38.3243 29.5742V0.0438232H49.975C52.2147 0.0438232 54.1228 0.47159 55.6993 1.32712C57.2758 2.17305 58.4774 3.35061 59.3041 4.85981C60.1404 6.3594 60.5586 8.08969 60.5586 10.0507C60.5586 12.0117 60.1356 13.742 59.2897 15.2416C58.4438 16.7412 57.2182 17.9091 55.6128 18.7454C54.0171 19.5817 52.085 19.9999 49.8164 19.9999H42.3905V14.9964H48.807C50.0086 14.9964 50.9987 14.7898 51.7773 14.3764C52.5656 13.9535 53.152 13.3719 53.5365 12.6317C53.9306 11.8819 54.1277 11.0216 54.1277 10.0507C54.1277 9.07019 53.9306 8.21465 53.5365 7.48409C53.152 6.74391 52.5656 6.17195 51.7773 5.76821C50.9891 5.35487 49.9894 5.14819 48.7782 5.14819H44.5678V29.5742H38.3243Z" fill="black"/>
  <path d="M35.0819 0.0438232V29.5742H28.8384V0.0438232H35.0819Z" fill="black"/>
  <path d="M0.5 29.5742V0.0438232H6.74349V12.228H19.4179V0.0438232H25.6469V29.5742H19.4179V17.3756H6.74349V29.5742H0.5Z" fill="black"/>
  <path d="M101.449 29.5908C93.6229 29.5908 87.2069 23.1606 87.2069 15.3486C87.2069 7.52251 93.6229 1.10651 101.449 1.10651C109.275 1.10651 115.691 7.52251 115.691 15.3486C115.691 23.1606 109.275 29.5908 101.449 29.5908ZM93.2704 9.38386C92.791 10.0184 93.0025 10.6953 93.7217 10.6953H109.134C109.867 10.6953 110.079 10.0184 109.6 9.36976C107.738 6.78926 104.749 5.20993 101.421 5.20993C98.093 5.20993 95.1036 6.78926 93.2704 9.38386ZM101.435 18.3945C102.845 18.3945 103.987 17.2664 103.987 15.8281C103.987 14.4321 102.845 13.2899 101.435 13.2899C100.025 13.2899 98.8827 14.4321 98.8827 15.8281C98.8827 17.2664 100.025 18.3945 101.435 18.3945ZM111.066 18.183C111.249 17.5343 110.939 17.2523 110.361 17.3369C107.061 17.8022 104.58 20.6789 104.622 24.049C104.622 24.599 105.017 24.9092 105.552 24.6413C108.288 23.3581 110.276 21.0314 111.066 18.183ZM91.8039 18.183C92.5936 21.0314 94.5818 23.3581 97.3174 24.6413C97.8533 24.9092 98.2481 24.599 98.2481 24.049C98.2904 20.6789 95.8086 17.8022 92.509 17.3369C91.9308 17.2523 91.6347 17.5343 91.8039 18.183Z" fill="black"/>
  <path d="M131.057 38.9081C130.727 38.9081 130.444 38.8649 130.206 38.7783C129.97 38.6918 129.777 38.5774 129.627 38.435C129.477 38.2926 129.366 38.1367 129.292 37.9673L129.987 37.6807C130.035 37.76 130.1 37.8438 130.181 37.9321C130.264 38.0222 130.376 38.0988 130.517 38.1619C130.659 38.225 130.842 38.2565 131.065 38.2565C131.372 38.2565 131.625 38.1817 131.825 38.0322C132.025 37.8844 132.125 37.6482 132.125 37.3238V36.5073H132.074C132.025 36.5956 131.955 36.6939 131.863 36.802C131.773 36.9102 131.648 37.0039 131.49 37.0832C131.331 37.1625 131.125 37.2022 130.871 37.2022C130.543 37.2022 130.247 37.1255 129.984 36.9723C129.723 36.8173 129.515 36.5893 129.362 36.2883C129.211 35.9855 129.135 35.6133 129.135 35.1718C129.135 34.7302 129.21 34.3517 129.359 34.0363C129.511 33.7208 129.718 33.4793 129.981 33.3117C130.244 33.1423 130.543 33.0576 130.876 33.0576C131.134 33.0576 131.342 33.1008 131.501 33.1873C131.659 33.272 131.783 33.3712 131.871 33.4847C131.961 33.5983 132.031 33.6983 132.079 33.7848H132.139V33.1116H132.931V37.3563C132.931 37.7131 132.848 38.006 132.682 38.2349C132.516 38.4638 132.292 38.6332 132.009 38.7432C131.728 38.8531 131.411 38.9081 131.057 38.9081ZM131.049 36.5317C131.282 36.5317 131.478 36.4776 131.639 36.3694C131.801 36.2595 131.923 36.1027 132.006 35.899C132.091 35.6936 132.133 35.4475 132.133 35.1609C132.133 34.8816 132.092 34.6355 132.009 34.4229C131.926 34.2102 131.804 34.0444 131.644 33.9254C131.484 33.8046 131.285 33.7443 131.049 33.7443C130.806 33.7443 130.603 33.8074 130.441 33.9335C130.279 34.0579 130.156 34.2273 130.073 34.4418C129.992 34.6563 129.952 34.896 129.952 35.1609C129.952 35.4331 129.993 35.6719 130.076 35.8774C130.159 36.0829 130.281 36.2433 130.444 36.3586C130.608 36.474 130.809 36.5317 131.049 36.5317Z" fill="black"/>
  <path d="M125.574 34.7987V37.2643H124.766V33.1116H125.542V33.7875H125.593C125.689 33.5676 125.838 33.391 126.042 33.2576C126.248 33.1242 126.506 33.0576 126.818 33.0576C127.101 33.0576 127.349 33.117 127.562 33.236C127.774 33.3531 127.939 33.528 128.056 33.7605C128.173 33.993 128.232 34.2805 128.232 34.6229V37.2643H127.424V34.7203C127.424 34.4193 127.345 34.184 127.188 34.0146C127.032 33.8434 126.816 33.7578 126.542 33.7578C126.355 33.7578 126.188 33.7983 126.042 33.8794C125.898 33.9606 125.783 34.0795 125.699 34.2363C125.616 34.3913 125.574 34.5788 125.574 34.7987Z" fill="black"/>
  <path d="M122.87 37.2644V33.1117H123.679V37.2644H122.87ZM123.278 32.4709C123.138 32.4709 123.017 32.4241 122.916 32.3303C122.817 32.2348 122.767 32.1213 122.767 31.9897C122.767 31.8563 122.817 31.7428 122.916 31.649C123.017 31.5535 123.138 31.5057 123.278 31.5057C123.419 31.5057 123.539 31.5535 123.638 31.649C123.739 31.7428 123.789 31.8563 123.789 31.9897C123.789 32.1213 123.739 32.2348 123.638 32.3303C123.539 32.4241 123.419 32.4709 123.278 32.4709Z" fill="black"/>
  <path d="M122.11 33.1117L120.605 37.2644H119.739L118.231 33.1117H119.099L120.15 36.3073H120.194L121.243 33.1117H122.11Z" fill="black"/>
  <path d="M116.662 37.2644V33.1117H117.47V37.2644H116.662ZM117.07 32.4709C116.93 32.4709 116.809 32.4241 116.708 32.3303C116.609 32.2348 116.559 32.1213 116.559 31.9897C116.559 31.8563 116.609 31.7428 116.708 31.649C116.809 31.5535 116.93 31.5057 117.07 31.5057C117.211 31.5057 117.331 31.5535 117.43 31.649C117.531 31.7428 117.581 31.8563 117.581 31.9897C117.581 32.1213 117.531 32.2348 117.43 32.3303C117.331 32.4241 117.211 32.4709 117.07 32.4709Z" fill="black"/>
  <path d="M113.74 37.2643V33.1116H114.521V33.7712H114.565C114.64 33.5477 114.774 33.372 114.965 33.244C115.158 33.1143 115.376 33.0494 115.619 33.0494C115.67 33.0494 115.729 33.0512 115.798 33.0548C115.868 33.0584 115.923 33.0629 115.962 33.0683V33.8415C115.93 33.8325 115.872 33.8226 115.789 33.8118C115.707 33.7992 115.624 33.7929 115.541 33.7929C115.35 33.7929 115.179 33.8334 115.03 33.9145C114.882 33.9938 114.765 34.1047 114.678 34.2471C114.592 34.3877 114.549 34.5481 114.549 34.7283V37.2643H113.74Z" fill="black"/>
  <path d="M110.103 37.2643H108.311V31.7273H110.16C110.702 31.7273 111.168 31.8382 111.558 32.0599C111.947 32.2798 112.245 32.5961 112.453 33.0088C112.662 33.4198 112.766 33.9127 112.766 34.4877C112.766 35.0644 112.661 35.5601 112.45 35.9747C112.241 36.3892 111.938 36.7082 111.541 36.9317C111.145 37.1534 110.666 37.2643 110.103 37.2643ZM109.146 36.5343H110.057C110.479 36.5343 110.83 36.455 111.109 36.2964C111.388 36.136 111.597 35.9044 111.736 35.6016C111.875 35.297 111.944 34.9257 111.944 34.4877C111.944 34.0533 111.875 33.6847 111.736 33.3819C111.599 33.0791 111.395 32.8493 111.122 32.6925C110.85 32.5357 110.512 32.4573 110.109 32.4573H109.146V36.5343Z" fill="black"/>
  <path d="M103.552 37.3481C103.143 37.3481 102.791 37.2607 102.495 37.0859C102.201 36.9093 101.974 36.6614 101.814 36.3424C101.655 36.0216 101.576 35.6458 101.576 35.215C101.576 34.7897 101.655 34.4148 101.814 34.0903C101.974 33.7659 102.198 33.5127 102.484 33.3306C102.773 33.1486 103.11 33.0576 103.496 33.0576C103.73 33.0576 103.957 33.0963 104.177 33.1738C104.397 33.2513 104.594 33.373 104.769 33.5388C104.944 33.7046 105.082 33.92 105.183 34.185C105.284 34.4481 105.334 34.768 105.334 35.1447V35.4313H102.033V34.8257H104.542C104.542 34.613 104.499 34.4247 104.412 34.2607C104.326 34.0948 104.204 33.9642 104.047 33.8686C103.892 33.7731 103.71 33.7253 103.501 33.7253C103.274 33.7253 103.076 33.7812 102.906 33.893C102.739 34.0029 102.609 34.1471 102.517 34.3255C102.427 34.5022 102.382 34.6941 102.382 34.9014V35.3745C102.382 35.6521 102.43 35.8882 102.528 36.0829C102.627 36.2775 102.765 36.4262 102.941 36.529C103.118 36.6299 103.324 36.6804 103.56 36.6804C103.714 36.6804 103.853 36.6587 103.98 36.6155C104.106 36.5704 104.215 36.5037 104.307 36.4154C104.399 36.3271 104.469 36.218 104.518 36.0883L105.283 36.2262C105.221 36.4515 105.111 36.6488 104.953 36.8182C104.796 36.9859 104.599 37.1165 104.361 37.2103C104.125 37.3022 103.855 37.3481 103.552 37.3481Z" fill="black"/>
  <path d="M101.144 33.1117L99.6382 37.2644H98.7731L97.2645 33.1117H98.1323L99.184 36.3073H99.2273L100.276 33.1117H101.144Z" fill="black"/>
  <path d="M95.6958 37.2644V33.1117H96.5041V37.2644H95.6958ZM96.104 32.4709C95.9634 32.4709 95.8426 32.4241 95.7417 32.3303C95.6426 32.2348 95.593 32.1213 95.593 31.9897C95.593 31.8563 95.6426 31.7428 95.7417 31.649C95.8426 31.5535 95.9634 31.5057 96.104 31.5057C96.2446 31.5057 96.3644 31.5535 96.4636 31.649C96.5645 31.7428 96.615 31.8563 96.615 31.9897C96.615 32.1213 96.5645 32.2348 96.4636 32.3303C96.3644 32.4241 96.2446 32.4709 96.104 32.4709Z" fill="black"/>
  <path d="M94.7258 34.1255L93.9932 34.2552C93.9625 34.1615 93.9139 34.0723 93.8472 33.9876C93.7823 33.9029 93.694 33.8335 93.5822 33.7794C93.4705 33.7253 93.3308 33.6983 93.1632 33.6983C92.9343 33.6983 92.7432 33.7497 92.59 33.8524C92.4368 33.9533 92.3602 34.084 92.3602 34.2444C92.3602 34.3832 92.4116 34.495 92.5143 34.5797C92.617 34.6644 92.7829 34.7338 93.0118 34.7879L93.6714 34.9393C94.0536 35.0276 94.3383 35.1636 94.5258 35.3475C94.7132 35.5313 94.807 35.7702 94.807 36.0639C94.807 36.3127 94.7349 36.5344 94.5907 36.729C94.4483 36.9219 94.2491 37.0733 93.9932 37.1832C93.739 37.2932 93.4443 37.3481 93.1091 37.3481C92.6441 37.3481 92.2647 37.249 91.9709 37.0507C91.6771 36.8507 91.4969 36.5668 91.4302 36.1991L92.2115 36.0802C92.2602 36.2838 92.3602 36.4379 92.5116 36.5425C92.663 36.6452 92.8604 36.6966 93.1037 36.6966C93.3686 36.6966 93.5804 36.6416 93.739 36.5317C93.8976 36.4199 93.977 36.2838 93.977 36.1234C93.977 35.9936 93.9283 35.8846 93.831 35.7963C93.7354 35.708 93.5885 35.6413 93.3903 35.5962L92.6873 35.4421C92.2998 35.3538 92.0132 35.2132 91.8276 35.0204C91.6438 34.8275 91.5518 34.5833 91.5518 34.2877C91.5518 34.0426 91.6203 33.8281 91.7573 33.6442C91.8943 33.4604 92.0835 33.3171 92.3251 33.2144C92.5666 33.1098 92.8432 33.0576 93.1551 33.0576C93.6039 33.0576 93.9571 33.1549 94.2149 33.3495C94.4726 33.5424 94.6429 33.801 94.7258 34.1255Z" fill="black"/>
  <path d="M87.8722 34.7987V37.2643H87.0639V33.1116H87.8398V33.7875H87.8912C87.9867 33.5676 88.1363 33.391 88.34 33.2576C88.5454 33.1242 88.8041 33.0576 89.1159 33.0576C89.3989 33.0576 89.6467 33.117 89.8594 33.236C90.0721 33.3531 90.237 33.528 90.3541 33.7605C90.4713 33.993 90.5299 34.2805 90.5299 34.6229V37.2643H89.7215V34.7203C89.7215 34.4193 89.6431 34.184 89.4863 34.0146C89.3295 33.8434 89.1141 33.7578 88.8401 33.7578C88.6527 33.7578 88.486 33.7983 88.34 33.8794C88.1958 33.9606 88.0813 34.0795 87.9966 34.2363C87.9137 34.3913 87.8722 34.5788 87.8722 34.7987Z" fill="black"/>
  <path d="M84.3853 37.3481C83.9762 37.3481 83.6238 37.2607 83.3282 37.0859C83.0344 36.9093 82.8073 36.6614 82.6469 36.3424C82.4883 36.0216 82.409 35.6458 82.409 35.215C82.409 34.7897 82.4883 34.4148 82.6469 34.0903C82.8073 33.7659 83.0308 33.5127 83.3174 33.3306C83.6058 33.1486 83.9428 33.0576 84.3285 33.0576C84.5629 33.0576 84.79 33.0963 85.0098 33.1738C85.2297 33.2513 85.4271 33.373 85.6019 33.5388C85.7768 33.7046 85.9146 33.92 86.0156 34.185C86.1165 34.4481 86.167 34.768 86.167 35.1447V35.4313H82.8659V34.8257H85.3748C85.3748 34.613 85.3316 34.4247 85.2451 34.2607C85.1585 34.0948 85.0369 33.9642 84.8801 33.8686C84.7251 33.7731 84.543 33.7253 84.3339 33.7253C84.1068 33.7253 83.9086 33.7812 83.7392 33.893C83.5715 34.0029 83.4418 34.1471 83.3498 34.3255C83.2597 34.5022 83.2147 34.6941 83.2147 34.9014V35.3745C83.2147 35.6521 83.2633 35.8882 83.3607 36.0829C83.4598 36.2775 83.5977 36.4262 83.7743 36.529C83.9509 36.6299 84.1573 36.6804 84.3934 36.6804C84.5466 36.6804 84.6863 36.6587 84.8125 36.6155C84.9387 36.5704 85.0477 36.5037 85.1396 36.4154C85.2315 36.3271 85.3018 36.218 85.3505 36.0883L86.1156 36.2262C86.0543 36.4515 85.9444 36.6488 85.7858 36.8182C85.629 36.9859 85.4316 37.1165 85.1937 37.2103C84.9576 37.3022 84.6881 37.3481 84.3853 37.3481Z" fill="black"/>
  <path d="M81.9251 33.1116V33.7605H79.5783V33.1116H81.9251ZM80.2218 37.2643V32.6304C80.2218 32.3708 80.2786 32.1554 80.3921 31.9842C80.5057 31.8112 80.6562 31.6823 80.8436 31.5976C81.0311 31.5111 81.2347 31.4678 81.4546 31.4678C81.6168 31.4678 81.7556 31.4814 81.871 31.5084C81.9863 31.5336 82.0719 31.5571 82.1278 31.5787L81.9386 32.2329C81.9007 32.2221 81.8521 32.2095 81.7926 32.1951C81.7331 32.1789 81.661 32.1708 81.5763 32.1708C81.3798 32.1708 81.2392 32.2194 81.1545 32.3168C81.0716 32.4141 81.0302 32.5547 81.0302 32.7385V37.2643H80.2218Z" fill="black"/>
  <path d="M77.2701 37.3481C76.861 37.3481 76.5086 37.2607 76.213 37.0859C75.9193 36.9093 75.6922 36.6614 75.5317 36.3424C75.3731 36.0216 75.2938 35.6458 75.2938 35.215C75.2938 34.7897 75.3731 34.4148 75.5317 34.0903C75.6922 33.7659 75.9156 33.5127 76.2022 33.3306C76.4906 33.1486 76.8277 33.0576 77.2134 33.0576C77.4477 33.0576 77.6748 33.0963 77.8947 33.1738C78.1146 33.2513 78.3119 33.373 78.4868 33.5388C78.6616 33.7046 78.7995 33.92 78.9004 34.185C79.0013 34.4481 79.0518 34.768 79.0518 35.1447V35.4313H75.7507V34.8257H78.2597C78.2597 34.613 78.2164 34.4247 78.1299 34.2607C78.0434 34.0948 77.9217 33.9642 77.7649 33.8686C77.6099 33.7731 77.4279 33.7253 77.2188 33.7253C76.9917 33.7253 76.7934 33.7812 76.624 33.893C76.4564 34.0029 76.3266 34.1471 76.2347 34.3255C76.1446 34.5022 76.0995 34.6941 76.0995 34.9014V35.3745C76.0995 35.6521 76.1482 35.8882 76.2455 36.0829C76.3446 36.2775 76.4825 36.4262 76.6591 36.529C76.8358 36.6299 77.0421 36.6804 77.2783 36.6804C77.4315 36.6804 77.5711 36.6587 77.6973 36.6155C77.8235 36.5704 77.9325 36.5037 78.0244 36.4154C78.1164 36.3271 78.1867 36.218 78.2353 36.0883L79.0004 36.2262C78.9392 36.4515 78.8292 36.6488 78.6706 36.8182C78.5138 36.9859 78.3164 37.1165 78.0785 37.2103C77.8424 37.3022 77.5729 37.3481 77.2701 37.3481Z" fill="black"/>
  <path d="M71.8434 37.2643H70.0509V31.7273H71.9002C72.4427 31.7273 72.9086 31.8382 73.2979 32.0599C73.6872 32.2798 73.9855 32.5961 74.1928 33.0088C74.4019 33.4198 74.5064 33.9127 74.5064 34.4877C74.5064 35.0644 74.401 35.5601 74.1901 35.9747C73.981 36.3892 73.6782 36.7082 73.2817 36.9317C72.8852 37.1534 72.4057 37.2643 71.8434 37.2643ZM70.8863 36.5343H71.7974C72.2192 36.5343 72.5697 36.455 72.8491 36.2964C73.1285 36.136 73.3376 35.9044 73.4763 35.6016C73.6151 35.297 73.6845 34.9257 73.6845 34.4877C73.6845 34.0533 73.6151 33.6847 73.4763 33.3819C73.3394 33.0791 73.1348 32.8493 72.8626 32.6925C72.5905 32.5357 72.2525 32.4573 71.8488 32.4573H70.8863V36.5343Z" fill="black"/>
  </svg>
  